<?xml version="1.0" encoding="utf-8"?>
<!-- Generator: Adobe Illustrator 17.1.0, SVG Export Plug-In . SVG Version: 6.00 Build 0)  -->
<!DOCTYPE svg PUBLIC "-//W3C//DTD SVG 1.1//EN" "http://www.w3.org/Graphics/SVG/1.1/DTD/svg11.dtd">
<svg version="1.1" id="Layer_1" xmlns="http://www.w3.org/2000/svg" xmlns:xlink="http://www.w3.org/1999/xlink" x="0px" y="0px"
	 viewBox="0 0 720 108" enable-background="new 0 0 720 108" xml:space="preserve">
<path fill="#FFFFFF" d="M203.7,208.8v-66.5h45V155h-28.4v11.8h26.1v12.6h-26.1v16.8h28.4v12.6C248.7,208.8,203.7,208.8,203.7,208.8z
	"/>
<path fill="#FFFFFF" d="M218.6,208.8h-16.1l-25.6-46.3v46.3h-15.3v-66.5h20.4l21.3,38.1v-38.1h15.3V208.8z"/>
<g>
	<g>
		<g>
			<polygon fill="#FFFFFF" points="113.7,146.2 113.7,149.2 113.7,146.2 			"/>
			<path fill="#FFFFFF" d="M162.7,153.4c-1.3-2.8-3.2-4.9-5.8-6.6c-2.3-1.6-4.8-2.6-7.6-3.4c-2.9-0.7-6.1-1.1-10-1.1h-25.7v3.8
				c9,5.7,17.3,17.1,16.1,32.2c-0.9,11.4-7.1,21.3-16.1,27.1l0-56.3v59.6h16.7v-21.8h8.8c2.4,0,4.6-0.2,6.5-0.6
				c1.9-0.4,3.6-0.8,5.3-1.6c1.6-0.7,3.1-1.6,4.4-2.5c1.3-1,2.6-2,3.7-3.2c1.8-1.8,3.2-4.2,4.2-7s1.4-5.6,1.4-8.8
				C164.8,159.5,164,156.2,162.7,153.4z M147,168.7c-0.4,1.2-1.2,2.4-2.3,3.5c-0.5,0.5-1.3,1-2.3,1.4c-1.1,0.4-2,0.7-2.9,0.8
				c-1,0.2-2.2,0.4-3.6,0.4s-2.9,0-4.4,0h-1.2v-20h2.4c2.5,0,4.4,0,5.9,0.1c1.4,0.1,3,0.5,4.6,1.2c1.3,0.5,2.4,1.4,3.2,2.8
				c0.8,1.3,1.3,2.9,1.3,4.8C147.7,165.8,147.4,167.3,147,168.7z"/>
		</g>
	</g>
</g>
<g>
	<path fill="#FFFFFF" stroke="#FFFFFF" stroke-width="2.9139" stroke-miterlimit="10" d="M75,143.8c0.9,1.9,1.8,3.6,2.6,5.5
		c-8.4,3.2-14.3,8.6-17.6,16.4c-2.5,6.1-2.6,12.2-0.6,18.4c3.9,12.1,16.4,20.3,30,19.7c13.9-0.6,25.7-9.7,28.4-22.4
		c2.6-12.6-3.4-26.3-18.9-32.3c0.9-1.8,1.8-3.6,2.6-5.4c11.5,3.4,25,16.2,23.5,34.4c-1.4,17.3-16.3,31-34.6,31.9
		c-18.8,0.9-35.1-11.3-38.4-28.8C48.7,164.2,60,148.8,75,143.8z"/>
	<path fill="#FFFFFF" stroke="#FFFFFF" stroke-width="2.9139" stroke-miterlimit="10" d="M84.6,147.1c0-2.9,0-5.8,0-8.7
		c0-2.2,1.4-3.5,3.5-3.5c2.1,0,3.5,1.3,3.5,3.5c0.1,5.9,0.1,11.9,0.1,17.7c0,1.5-0.6,2.7-2.3,3.2c-1.5,0.5-3,0.5-4-0.8
		c-0.6-0.7-0.9-1.6-1-2.6C84.5,152.9,84.6,150,84.6,147.1z"/>
</g>
<path fill="#FFFFFF" stroke="#7AA4BE" stroke-width="4.1873" stroke-miterlimit="10" d="M190.2,133.1l-43.6,84.1h-13.5l43.5-84.2
	L190.2,133.1L190.2,133.1z"/>
<text transform="matrix(1 0 0 1 147.6441 231.9167)" fill="#FFFFFF" font-family="'Arial-BoldMT'" font-size="17.3088">FOR ALL.</text>
<text transform="matrix(1 0 0 1 84.0104 231.9163)" fill="#FFFFFF" font-family="'Arial-BoldMT'" font-size="17.3088">DATA.</text>
</svg>
