<?xml version="1.0" encoding="utf-8"?>
<!-- Generator: Adobe Illustrator 15.0.0, SVG Export Plug-In . SVG Version: 6.00 Build 0)  -->
<!DOCTYPE svg PUBLIC "-//W3C//DTD SVG 1.1//EN" "http://www.w3.org/Graphics/SVG/1.1/DTD/svg11.dtd">
<svg version="1.1" id="Layer_1" xmlns="http://www.w3.org/2000/svg" xmlns:xlink="http://www.w3.org/1999/xlink" x="0px" y="0px"
	 width="720px" height="108px" viewBox="0 0 720 108" style="enable-background:new 0 0 720 108;" xml:space="preserve">
<style type="text/css">
<![CDATA[
	.st0{fill:#FFFFFF;}
	.st1{fill:#41BDED;}
]]>
</style>

<g>
	<path class="st0" d="M78.5,54.4c0,8.9-2.4,16-7.2,21.1c-4.8,5.1-11.3,7.7-19.6,7.7c-8.3,0-14.9-2.6-19.6-7.8
		c-4.8-5.2-7.1-12.2-7.1-21c0-8.9,2.4-15.9,7.1-21.1s11.3-7.7,19.6-7.7c8.3,0,14.9,2.6,19.6,7.7C76.1,38.4,78.5,45.5,78.5,54.4z
		 M64.2,54.3c0-3.3-0.3-6.1-1-8.4c-0.7-2.3-1.6-4.2-2.7-5.7c-1.2-1.5-2.5-2.6-4-3.2c-1.5-0.7-3-1-4.7-1c-1.7,0-3.3,0.3-4.6,0.9
		c-1.4,0.6-2.7,1.7-4,3.2c-1.1,1.4-2.1,3.3-2.8,5.7c-0.7,2.4-1.1,5.2-1.1,8.5c0,3.4,0.3,6.2,1,8.4c0.7,2.2,1.6,4.1,2.7,5.6
		c1.2,1.5,2.5,2.6,4,3.3c1.5,0.7,3.1,1,4.7,1c1.6,0,3.2-0.4,4.8-1.1c1.5-0.7,2.9-1.8,4-3.3c1.2-1.6,2.1-3.5,2.7-5.6
		C63.8,60.6,64.2,57.8,64.2,54.3z"/>
	<path class="st0" d="M129.2,44.2c0,2.6-0.4,5-1.2,7.3s-2,4.3-3.5,5.8c-0.9,1-2,1.9-3.1,2.7c-1.1,0.8-2.4,1.5-3.7,2.1
		c-1.4,0.6-2.8,1-4.4,1.3s-3.4,0.5-5.4,0.5h-7.3V82H86.7V26.7h21.4c3.2,0,5.9,0.3,8.3,0.9c2.3,0.6,4.4,1.5,6.3,2.8
		c2.1,1.4,3.7,3.2,4.8,5.5C128.6,38.2,129.2,41,129.2,44.2z M115,44.5c0-1.6-0.4-2.9-1.1-4c-0.7-1.1-1.6-1.9-2.7-2.3
		c-1.3-0.6-2.6-0.9-3.8-1c-1.2-0.1-2.8-0.1-4.9-0.1h-2v16.6h1c1.3,0,2.5,0,3.7,0c1.2,0,2.2-0.1,3-0.3c0.7-0.1,1.5-0.4,2.4-0.7
		c0.8-0.4,1.5-0.8,1.9-1.2c0.9-0.9,1.6-1.9,1.9-2.9C114.8,47.5,115,46.2,115,44.5z"/>
	<path class="st0" d="M136.6,82V26.7H174v10.5h-23.6V47h21.7v10.5h-21.7v14H174V82H136.6z"/>
	<path class="st0" d="M230.7,82h-13.4l-21.3-38.5V82h-12.7V26.7h17L218,58.4V26.7h12.7V82z"/>
	<path class="st0" d="M277.5,17.3L253.9,93h-7.3l23.5-75.8H277.5z"/>
</g>
<g>
	<path class="st0" d="M330.5,28.8h8.5v50.3h-9.2l-28.5-36.7v36.7h-8.5V28.8h8.5l29.2,37.6V28.8z"/>
	<path class="st0" d="M388.4,28.8v8h-26.9v13.3h24.1v7.6h-24.1v13.5h27.7v8H353V28.8H388.4z"/>
	<path class="st0" d="M422.1,79.2h-22V28.8h19.6c3.4,0,6.3,0.4,8.8,1.2s4.3,1.9,5.5,3.3c2.3,2.6,3.5,5.5,3.5,8.8
		c0,3.9-1.2,6.9-3.7,8.8c-0.9,0.7-1.5,1.1-1.9,1.3c-0.3,0.2-0.9,0.4-1.8,0.8c3.1,0.7,5.6,2.1,7.5,4.2c1.8,2.1,2.8,4.8,2.8,8
		c0,3.5-1.2,6.6-3.6,9.3C433.8,77.6,429,79.2,422.1,79.2z M408.6,49.7h10.8c6.1,0,9.2-2.1,9.2-6.3c0-2.4-0.7-4.1-2.2-5.2
		c-1.5-1.1-3.8-1.6-6.9-1.6h-10.9V49.7z M408.6,71.3h13.3c3.1,0,5.5-0.5,7.2-1.5c1.7-1,2.5-2.8,2.5-5.6c0-4.5-3.6-6.7-10.7-6.7
		h-12.2V71.3z"/>
	<path class="st0" d="M491.1,45.2c0,8.3-3.6,13.5-10.9,15.7l13.2,18.3h-10.8l-12-16.9h-11.2v16.9h-8.5V28.8h18.7
		c7.7,0,13.2,1.3,16.5,3.9C489.4,35.3,491.1,39.5,491.1,45.2z M479.8,52.3c1.7-1.5,2.6-3.9,2.6-7.2c0-3.3-0.9-5.5-2.7-6.8
		s-4.9-1.8-9.5-1.8h-10.8v18H470C474.8,54.5,478.1,53.8,479.8,52.3z"/>
	<path class="st0" d="M510.5,67.7l-5,11.4h-9.1l22.2-50.3h9.1l22.2,50.3h-9.1l-5-11.4H510.5z M532.2,59.9l-9.1-20.7l-9.1,20.7H532.2
		z"/>
	<path class="st0" d="M572,35.5c-2.5,0-4.5,0.5-6.1,1.5c-1.6,1-2.4,2.5-2.4,4.6c0,2,0.8,3.6,2.4,4.7c1.6,1.1,5,2.2,10.1,3.5
		s9,3,11.7,5.3c2.6,2.3,3.9,5.6,3.9,10c0,4.4-1.7,8-5,10.7c-3.3,2.7-7.7,4.1-13,4.1c-7.9,0-14.9-2.7-21-8.1l5.3-6.4
		c5.1,4.4,10.4,6.6,15.8,6.6c2.7,0,4.9-0.6,6.5-1.8c1.6-1.2,2.4-2.7,2.4-4.7c0-1.9-0.8-3.5-2.3-4.5s-4.1-2.1-7.8-3
		c-3.7-0.9-6.5-1.7-8.4-2.4s-3.6-1.7-5.1-2.9c-3-2.3-4.5-5.7-4.5-10.4c0-4.7,1.7-8.2,5.1-10.8c3.4-2.5,7.6-3.8,12.6-3.8
		c3.2,0,6.4,0.5,9.6,1.6s5.9,2.5,8.2,4.5l-4.5,6.4c-1.5-1.3-3.5-2.4-6-3.3C577,35.9,574.5,35.5,572,35.5z"/>
	<path class="st0" d="M602.1,28.8h8.5v24.6l23-24.6h10.8l-20.2,22l20.5,28.3h-10.1l-16.7-22l-7.3,7.9v14.1h-8.5V28.8z"/>
	<path class="st0" d="M660.9,67.7l-5,11.4h-9.1L669,28.8h9.1l22.2,50.3h-9.1l-5-11.4H660.9z M682.7,59.9l-9.1-20.7l-9.1,20.7H682.7z
		"/>
</g>
</svg>